<svg width="23" height="24" viewBox="0 0 23 24" fill="none" xmlns="http://www.w3.org/2000/svg">
<path d="M19.9965 3.36707L7.83362 0.108039C6.15429 -0.341921 4.42813 0.654669 3.97815 2.334L0.108047 16.7773C-0.341933 18.4568 0.654667 20.1829 2.334 20.6328L14.4969 23.892C16.1762 24.3419 17.9023 23.3453 18.3524 21.666L22.2224 7.22254C22.6723 5.54321 21.6758 3.81705 19.9965 3.36707ZM5.4985 2.74138C5.7235 1.90171 6.58657 1.40341 7.42624 1.62841L19.5891 4.88744C20.4287 5.11242 20.927 5.9755 20.702 6.81516L16.8319 21.2586C16.6071 22.0983 15.7439 22.5966 14.9043 22.3715L2.7414 19.1125C1.90172 18.8875 1.40343 18.0245 1.62841 17.1849L5.4985 2.74138ZM8.13191 5.07654C7.71206 4.96404 7.28053 5.2132 7.16803 5.63302C7.05555 6.05285 7.30469 6.4844 7.72453 6.59689L16.8467 9.04116C17.2665 9.15366 17.6981 8.90451 17.8105 8.48468C17.9231 8.06483 17.6739 7.6333 17.2541 7.52081L8.13191 5.07654ZM6.14959 9.43392C6.26209 9.01409 6.69363 8.76493 7.11345 8.87743L16.2356 11.3217C16.6554 11.4342 16.9045 11.8657 16.7921 12.2856C16.6796 12.7054 16.2481 12.9546 15.8282 12.8421L6.70608 10.3978C6.28625 10.2853 6.03709 9.85375 6.14959 9.43392ZM6.09501 12.6783C5.67518 12.5658 5.24363 12.815 5.13115 13.2348C5.01865 13.6546 5.26781 14.0861 5.68764 14.1987L11.0089 15.6246C11.4287 15.737 11.8602 15.4879 11.9727 15.0679C12.0852 14.6481 11.8361 14.2167 11.4163 14.1041L6.09501 12.6783Z" fill="white"/>
</svg>
