<svg width="15" height="15" viewBox="0 0 15 15" fill="none" xmlns="http://www.w3.org/2000/svg">
<path d="M1.50226 4.413L7.50001 7.4115L13.4978 4.413C13.4756 4.03083 13.3081 3.67162 13.0296 3.40892C12.7512 3.14622 12.3828 2.99993 12 3H3.00001C2.6172 2.99993 2.24884 3.14622 1.97039 3.40892C1.69194 3.67162 1.52446 4.03083 1.50226 4.413Z" fill="white"/>
<path d="M13.5 6.08838L7.5 9.08838L1.5 6.08838V10.4999C1.5 10.8977 1.65804 11.2792 1.93934 11.5605C2.22064 11.8418 2.60218 11.9999 3 11.9999H12C12.3978 11.9999 12.7794 11.8418 13.0607 11.5605C13.342 11.2792 13.5 10.8977 13.5 10.4999V6.08838Z" fill="white"/>
</svg>
