<svg width="34" height="34" viewBox="0 0 34 34" fill="none" xmlns="http://www.w3.org/2000/svg">
<path d="M5.66666 22.6667V19.295C5.66666 16.2917 4.2075 14.875 4.25 11.3334C4.2925 7.48004 6.36083 2.83337 10.625 2.83337C13.2742 2.83337 14.1667 5.38337 14.1667 7.79171C14.1667 12.1975 11.3333 15.81 11.3333 20.0884V22.6667C11.3333 23.4182 11.0348 24.1388 10.5035 24.6702C9.97211 25.2015 9.25144 25.5 8.5 25.5C7.74855 25.5 7.02788 25.2015 6.49653 24.6702C5.96517 24.1388 5.66666 23.4182 5.66666 22.6667Z" stroke="white" stroke-width="2" stroke-linecap="round" stroke-linejoin="round"/>
<path d="M28.3333 28.3333V24.9617C28.3333 21.9583 29.7925 20.5417 29.75 17C29.7075 13.1467 27.6392 8.5 23.375 8.5C20.7258 8.5 19.8333 11.05 19.8333 13.4583C19.8333 17.8642 22.6667 21.4767 22.6667 25.755V28.3333C22.6667 29.0848 22.9652 29.8054 23.4965 30.3368C24.0279 30.8682 24.7486 31.1667 25.5 31.1667C26.2515 31.1667 26.9721 30.8682 27.5035 30.3368C28.0348 29.8054 28.3333 29.0848 28.3333 28.3333Z" stroke="white" stroke-width="2" stroke-linecap="round" stroke-linejoin="round"/>
<path d="M22.6667 24.0834H28.3333" stroke="white" stroke-width="2" stroke-linecap="round" stroke-linejoin="round"/>
<path d="M5.66666 18.4166H11.3333" stroke="white" stroke-width="2" stroke-linecap="round" stroke-linejoin="round"/>
</svg>
