<svg width="34" height="34" viewBox="0 0 34 34" fill="none" xmlns="http://www.w3.org/2000/svg">
<path d="M8.5 15.5834H14.1667" stroke="white" stroke-width="2" stroke-linecap="round" stroke-linejoin="round"/>
<path d="M11.3333 12.75V18.4167" stroke="white" stroke-width="2" stroke-linecap="round" stroke-linejoin="round"/>
<path d="M21.25 17H21.2642" stroke="white" stroke-width="2" stroke-linecap="round" stroke-linejoin="round"/>
<path d="M25.5 14.1666H25.5142" stroke="white" stroke-width="2" stroke-linecap="round" stroke-linejoin="round"/>
<path d="M24.5366 7.08337H9.46331C8.06121 7.0837 6.70901 7.60382 5.66811 8.5432C4.62721 9.48257 3.97153 10.7745 3.82781 12.1692C3.81931 12.2429 3.81365 12.3123 3.80373 12.3845C3.68898 13.3394 2.83331 20.4794 2.83331 22.6667C2.83331 23.7939 3.28108 24.8749 4.07811 25.6719C4.87514 26.4689 5.95614 26.9167 7.08331 26.9167C8.49998 26.9167 9.20831 26.2084 9.91665 25.5L11.9198 23.4969C12.451 22.9655 13.1716 22.6669 13.923 22.6667H20.077C20.8284 22.6669 21.5489 22.9655 22.0801 23.4969L24.0833 25.5C24.7916 26.2084 25.5 26.9167 26.9166 26.9167C28.0438 26.9167 29.1248 26.4689 29.9219 25.6719C30.7189 24.8749 31.1666 23.7939 31.1666 22.6667C31.1666 20.478 30.311 13.3394 30.1962 12.3845C30.1863 12.3137 30.1806 12.2429 30.1721 12.1706C30.0288 10.7756 29.3732 9.48339 28.3323 8.54372C27.2914 7.60406 25.939 7.08374 24.5366 7.08337Z" stroke="white" stroke-width="2" stroke-linecap="round" stroke-linejoin="round"/>
</svg>
