<svg width="30" height="30" viewBox="0 0 30 30" fill="none" xmlns="http://www.w3.org/2000/svg">
<g clip-path="url(#clip0_177_186)">
<path d="M15 0C6.71875 0 0 6.71875 0 15C0 23.2812 6.71875 30 15 30C23.2812 30 30 23.2812 30 15C30 6.71875 23.2812 0 15 0ZM15.96 5.13125C16.1887 5.13125 16.4137 5.1975 16.6163 5.3275C16.7725 5.43125 16.975 5.55875 17.56 6.77C17.9475 6.66 18.145 6.7175 18.2488 6.74625C18.5037 6.81625 18.7063 6.98375 18.8275 7.215C19.4237 8.36125 19.505 10.4062 19.245 11.7212C18.9438 13.2612 18.3013 14.2575 17.8313 14.9412C18.2362 15.3525 18.8037 16.065 19.2275 17.2225C19.575 18.19 19.615 19.07 19.5688 19.7413C19.8279 19.6199 20.0792 19.4826 20.3213 19.33C21.0625 18.8725 22.18 18.1838 23.5125 18.1663C24.405 18.155 25.0988 18.7225 25.2038 19.545C25.2545 19.925 25.1615 20.3102 24.943 20.6251C24.7245 20.9401 24.3962 21.1621 24.0225 21.2475C23.2113 21.445 22.835 21.595 21.7463 22.3013C20.2062 23.2975 18.5725 23.8538 17.9813 24.0388C17.7256 24.2488 17.4242 24.3956 17.1012 24.4675C16.18 24.6937 13.0188 24.8612 12.7688 24.8612H12.7112C11.7325 24.8612 11.1937 24.56 10.8988 24.2475C10.0763 24.6588 9.01125 24.485 8.24625 24.08C7.98608 23.9501 7.77489 23.7396 7.64422 23.4799C7.51355 23.2201 7.47042 22.925 7.52125 22.6388C7.44954 22.5641 7.38547 22.4824 7.33 22.395C7.1275 22.0825 6.67 21.225 6.7625 19.9625C6.8325 19.0588 7.4575 18.2537 7.8625 17.825C7.83335 16.8597 8.00709 15.899 8.3725 15.005C8.755 14.0962 9.47875 13.32 10.0225 12.8337C9.6225 12.1625 9.2175 11.125 9.61125 10.0712C9.895 9.31875 10.1262 8.90125 10.6362 8.72125H10.63C10.8787 8.62875 11.1163 8.53 11.2375 8.3975C11.9814 7.58472 13.0105 7.09075 14.11 7.01875C14.1562 6.9025 14.2087 6.7875 14.2663 6.665C14.6538 5.8425 15.065 5.37875 15.5463 5.205C15.6774 5.15577 15.8162 5.13037 15.9563 5.13L15.96 5.13125ZM15.9675 6.00625C15.3337 6.02625 14.7162 7.905 14.7162 7.905C14.7162 7.905 13.1287 7.65 11.8837 8.99375C11.635 9.26625 11.2987 9.41125 10.9513 9.54375C10.8525 9.57875 10.7312 9.5725 10.43 10.3837C9.96625 11.6225 11.2113 13.0013 11.2113 13.0013C11.2113 13.0013 9.72875 14.05 9.17875 15.3525C8.57125 16.7825 8.75625 18.1788 8.75625 18.1788C8.75625 18.1788 7.7025 19.0938 7.6325 20.0375C7.56875 20.8663 7.80625 21.5375 8.06125 21.9312C8.345 22.36 8.69875 22.1513 8.69875 22.1513C8.69875 22.1513 7.9975 22.9675 8.6525 23.315C9.24875 23.6275 10.2563 23.8075 10.79 23.2687C11.1775 22.8813 11.2537 22.0175 11.3975 21.665C11.4325 21.5838 11.5475 21.8038 11.6587 21.9137C11.78 22.03 11.9887 22.1575 11.9887 22.1575C11.9887 22.1575 11.045 22.5625 11.4325 23.49C11.56 23.7975 12.0175 23.9938 12.765 23.9875C13.0425 23.9813 16.095 23.8137 16.9062 23.6175C17.375 23.5075 17.5375 23.2638 17.5375 23.2638C17.5375 23.2638 19.495 22.725 21.285 21.5675C22.4312 20.82 22.9013 20.6175 23.8275 20.3975C24.5925 20.2125 24.54 19.025 23.5262 19.0425C22.4775 19.0538 21.5575 19.5925 20.7812 20.0737C19.3275 20.9713 18.6038 20.9138 18.6038 20.9138L18.5812 20.8737C18.4825 20.7112 19.045 19.2575 18.4137 17.5262C17.73 15.6325 16.6475 15.175 16.7337 15.03C17.105 14.405 18.0312 13.4088 18.4012 11.555C18.6213 10.4313 18.5637 8.58375 18.065 7.61625C17.9725 7.43625 17.15 7.9175 17.15 7.9175C17.15 7.9175 16.38 6.20375 16.165 6.06375C16.1071 6.02482 16.0373 6.00474 15.9675 6.00625Z" fill="white"/>
</g>
<defs>
<clipPath id="clip0_177_186">
<rect width="30" height="30" fill="white"/>
</clipPath>
</defs>
</svg>
