<svg width="34" height="34" viewBox="0 0 34 34" fill="none" xmlns="http://www.w3.org/2000/svg">
<path d="M24.0833 29.75C24.459 29.75 24.8194 29.6008 25.085 29.3351C25.3507 29.0694 25.5 28.7091 25.5 28.3333V20.7542C25.5 20.1068 25.9476 19.5585 26.5299 19.2794C27.7354 18.7043 28.6991 17.7219 29.2508 16.5054C29.8025 15.289 29.9067 13.9168 29.5452 12.631C29.1836 11.3451 28.3794 10.2283 27.2746 9.47772C26.1698 8.72708 24.8353 8.39085 23.5067 8.52834C22.9596 7.25647 22.0516 6.17285 20.8952 5.41145C19.7388 4.65005 18.3846 4.24426 17 4.24426C15.6154 4.24426 14.2612 4.65005 13.1048 5.41145C11.9483 6.17285 11.0404 7.25647 10.4932 8.52834C9.16522 8.39181 7.83165 8.72852 6.72764 9.47912C5.62362 10.2297 4.82006 11.346 4.45863 12.6312C4.09721 13.9163 4.20112 15.2878 4.75205 16.5038C5.30299 17.7198 6.26556 18.7023 7.47006 19.278C8.05231 19.5585 8.49998 20.1068 8.49998 20.7528V28.3333C8.49998 28.7091 8.64923 29.0694 8.91491 29.3351C9.18059 29.6008 9.54092 29.75 9.91665 29.75H24.0833Z" stroke="white" stroke-width="2" stroke-linecap="round" stroke-linejoin="round"/>
<path d="M8.5 24.0834H25.5" stroke="white" stroke-width="2" stroke-linecap="round" stroke-linejoin="round"/>
</svg>
