<svg width="34" height="34" viewBox="0 0 34 34" fill="none" xmlns="http://www.w3.org/2000/svg">
<path d="M28.6167 8.50002L4.25002 15.5833L2.97502 12.1833C2.55002 10.625 3.40002 9.06668 4.81668 8.64168L23.9417 2.97502C25.5 2.55002 27.0583 3.40002 27.4833 4.81668L28.6167 8.50002Z" stroke="white" stroke-width="2" stroke-linecap="round" stroke-linejoin="round"/>
<path d="M8.78333 7.5083L13.175 13.0333" stroke="white" stroke-width="2" stroke-linecap="round" stroke-linejoin="round"/>
<path d="M17.5667 4.81665L21.9583 10.4833" stroke="white" stroke-width="2" stroke-linecap="round" stroke-linejoin="round"/>
<path d="M4.25 15.5834H29.75V26.9167C29.75 27.6682 29.4515 28.3888 28.9201 28.9202C28.3888 29.4515 27.6681 29.75 26.9167 29.75H7.08333C6.33189 29.75 5.61122 29.4515 5.07986 28.9202C4.54851 28.3888 4.25 27.6682 4.25 26.9167V15.5834Z" stroke="white" stroke-width="2" stroke-linecap="round" stroke-linejoin="round"/>
</svg>
