<svg width="30" height="30" viewBox="0 0 30 30" fill="none" xmlns="http://www.w3.org/2000/svg">
<path d="M14.7125 14.05H12.445V10.2525H15.135C16.5975 10.2525 17.4275 10.905 17.4275 12.085C17.4275 13.345 16.4613 14.05 14.71 14.05H14.7125ZM15.1175 15.5575H12.4462V19.7425H15.235C17.0588 19.7425 18.025 19.0113 18.025 17.6363C18.025 16.2613 17.0312 15.5575 15.1175 15.5575ZM30 14.2375V15.76C28.59 15.895 27.7288 16.94 27.2175 18.595C26.7087 20.2438 26.6388 22.2663 26.6925 23.8275C26.7488 25.4525 25.4825 26.9525 23.7712 26.9525H6.23125C4.51875 26.9525 3.2525 25.4525 3.31 23.8275C3.36375 22.2663 3.29375 20.2438 2.785 18.595C2.2725 16.94 1.41 15.895 0 15.76V14.2375C1.41 14.1025 2.27375 13.0575 2.78375 11.4025C3.29375 9.75379 3.36375 7.73129 3.30875 6.17004C3.2525 4.54504 4.51875 3.04504 6.23125 3.04504H23.7712C25.4837 3.04504 26.7488 4.54504 26.6925 6.17004C26.6388 7.73129 26.7087 9.75379 27.2175 11.4025C27.7288 13.0575 28.59 14.1025 30 14.2375ZM20.0912 17.7588C20.0912 16.0663 18.9 14.8425 17.1313 14.6488V14.5775C18.4312 14.3663 19.4513 13.1588 19.4513 11.8113C19.4513 9.89005 17.935 8.63879 15.6237 8.63879H10.4237V21.3538H15.65C18.4225 21.3538 20.0912 19.9963 20.0912 17.7588Z" fill="white"/>
</svg>
