<svg width="30" height="30" viewBox="0 0 30 30" fill="none" xmlns="http://www.w3.org/2000/svg">
<g clip-path="url(#clip0_175_154)">
<path d="M15.0013 6C11.0013 6 8.50125 8 7.50125 12C9.00125 10 10.7513 9.25 12.7513 9.75C13.8925 10.035 14.7075 10.8625 15.6113 11.78C17.0825 13.2725 18.7838 15 22.5013 15C26.5013 15 29.0013 13 30.0013 9C28.5013 11 26.7513 11.75 24.7513 11.25C23.61 10.965 22.795 10.1375 21.8913 9.22C20.4213 7.7275 18.72 6 15.0013 6ZM7.50125 15C3.50125 15 1.00125 17 0.00125122 21C1.50125 19 3.25125 18.25 5.25125 18.75C6.3925 19.035 7.2075 19.8625 8.11125 20.78C9.5825 22.2725 11.2838 24 15.0013 24C19.0013 24 21.5013 22 22.5013 18C21.0013 20 19.2513 20.75 17.2513 20.25C16.11 19.965 15.295 19.1375 14.3913 18.22C12.9213 16.7275 11.22 15 7.50125 15Z" fill="white"/>
</g>
<defs>
<clipPath id="clip0_175_154">
<rect width="30" height="30" fill="white"/>
</clipPath>
</defs>
</svg>
