<svg width="30" height="30" viewBox="0 0 30 30" fill="none" xmlns="http://www.w3.org/2000/svg">
<g clip-path="url(#clip0_177_188)">
<path d="M10.3575 13.2224L10.9975 2.40116C11.0026 2.31649 11.0357 2.23591 11.0916 2.1721C11.1475 2.10829 11.223 2.06487 11.3062 2.04866L21.7212 0.00741307C21.7856 -0.00521857 21.8521 -0.00110773 21.9143 0.0193512C21.9766 0.03981 22.0326 0.0759304 22.0769 0.124246C22.1212 0.172562 22.1523 0.231452 22.1673 0.295266C22.1823 0.35908 22.1806 0.425675 22.1625 0.488663L20.215 7.24241C20.1969 7.30528 20.1953 7.37173 20.2102 7.43542C20.2252 7.49911 20.2562 7.5579 20.3003 7.60617C20.3445 7.65445 20.4002 7.6906 20.4623 7.71117C20.5244 7.73174 20.5908 7.73604 20.655 7.72366L23.64 7.14866C23.7102 7.13493 23.7829 7.14117 23.8498 7.16669C23.9166 7.1922 23.975 7.23596 24.0182 7.293C24.0615 7.35003 24.0878 7.41805 24.0943 7.48932C24.1008 7.56059 24.0872 7.63225 24.055 7.69616L15.5675 24.6337L15.4137 24.8712C15.3807 24.9249 15.3343 24.9693 15.2792 24.9999C15.224 25.0306 15.1619 25.0465 15.0987 25.0462C14.8775 25.0462 14.6612 24.8562 14.7175 24.5849L16.0862 17.9587C16.0997 17.8938 16.096 17.8265 16.0756 17.7634C16.0552 17.7003 16.0188 17.6437 15.9699 17.5989C15.921 17.5542 15.8613 17.5229 15.7967 17.5082C15.732 17.4935 15.6647 17.4958 15.6012 17.5149L13.81 18.0587C13.7466 18.078 13.6792 18.0805 13.6145 18.066C13.5499 18.0514 13.4901 18.0203 13.441 17.9757C13.392 17.9311 13.3554 17.8745 13.3349 17.8114C13.3143 17.7484 13.3105 17.6811 13.3237 17.6162L14.1862 13.3974C14.1993 13.3344 14.1963 13.2692 14.1775 13.2076C14.1586 13.1461 14.1246 13.0904 14.0785 13.0455C14.0324 13.0006 13.9757 12.9681 13.9137 12.951C13.8517 12.9338 13.7863 12.9326 13.7237 12.9474L10.8237 13.6174C10.7659 13.6307 10.7057 13.6303 10.648 13.6164C10.5903 13.6024 10.5366 13.5751 10.4912 13.5368C10.4459 13.4985 10.4101 13.4501 10.3866 13.3955C10.3632 13.341 10.3528 13.2817 10.3562 13.2224H10.3575ZM29.0775 3.31491L21.605 4.67491L20.925 7.03366L23.5212 6.53366C23.7224 6.49356 23.9311 6.5163 24.1189 6.59881C24.3068 6.68132 24.4647 6.81961 24.5712 6.99491C24.6617 7.14071 24.7131 7.30732 24.7206 7.47873C24.728 7.65014 24.6912 7.82058 24.6137 7.97366L16.125 24.9124L16.1087 24.9437L16.09 24.9724L15.9375 25.2099C15.8474 25.3511 15.7232 25.4675 15.5765 25.5483C15.4297 25.6291 15.265 25.6718 15.0975 25.6724C14.9458 25.6716 14.7961 25.6373 14.6591 25.5721C14.5222 25.5068 14.4012 25.4122 14.305 25.2949C14.2114 25.179 14.1448 25.0437 14.1102 24.8988C14.0756 24.7539 14.0738 24.6031 14.105 24.4574L15.3912 18.2312L13.9912 18.6562C13.7997 18.7138 13.5955 18.7135 13.4041 18.6552C13.2128 18.597 13.043 18.4833 12.9162 18.3287C12.8217 18.2132 12.7541 18.0781 12.7184 17.9332C12.6828 17.7883 12.6799 17.6373 12.71 17.4912L13.4975 13.6412L10.9637 14.2262C10.7922 14.2654 10.6134 14.2592 10.445 14.2082C10.2766 14.1571 10.1245 14.0629 10.0037 13.9349C9.91011 13.8348 9.83779 13.7167 9.79116 13.5877C9.74454 13.4588 9.72458 13.3218 9.73249 13.1849L10.2187 4.97241L0.918743 3.30991C0.775454 3.28405 0.62776 3.29963 0.493014 3.3548C0.358268 3.40997 0.242065 3.50245 0.158056 3.62137C0.0740475 3.7403 0.0257228 3.88073 0.018759 4.02616C0.0117951 4.1716 0.0464813 4.31601 0.118743 4.44241L14.475 29.6137C14.5421 29.7315 14.6392 29.8294 14.7565 29.8973C14.8739 29.9652 15.0071 30.0007 15.1427 30.0002C15.2783 29.9997 15.4113 29.9632 15.5281 29.8944C15.6449 29.8256 15.7413 29.727 15.8075 29.6087L29.8825 4.43991C29.953 4.31328 29.9862 4.16921 29.978 4.02448C29.9698 3.87975 29.9207 3.74032 29.8363 3.62243C29.752 3.50454 29.6359 3.41304 29.5015 3.3586C29.3672 3.30416 29.2201 3.28901 29.0775 3.31491Z" fill="white"/>
</g>
<defs>
<clipPath id="clip0_177_188">
<rect width="30" height="30" fill="white"/>
</clipPath>
</defs>
</svg>
